<svg width="20" height="34" viewBox="0 0 20 34" fill="none" xmlns="http://www.w3.org/2000/svg">
<rect width="20" height="20" transform="translate(0 14)" fill="white" style="mix-blend-mode:multiply"/>
<rect x="5" y="17.75" width="10" height="12.5" fill="black"/>
<rect width="20" height="20" transform="translate(0 14)" fill="white" style="mix-blend-mode:multiply"/>
<path d="M10 15.25C5.1875 15.25 1.25 19.1875 1.25 24C1.25 28.8125 5.1875 32.75 10 32.75C14.8125 32.75 18.75 28.8125 18.75 24C18.75 19.1875 14.8125 15.25 10 15.25ZM9.3125 19H10.6875V25.875H9.3125V19ZM10 29.625C9.5 29.625 9.0625 29.1875 9.0625 28.6875C9.0625 28.1875 9.5 27.75 10 27.75C10.5 27.75 10.9375 28.1875 10.9375 28.6875C10.9375 29.1875 10.5 29.625 10 29.625Z" fill="#F1C21B"/>
</svg>
