<svg version="1.1" id="Layer_1" xmlns="http://www.w3.org/2000/svg" xmlns:xlink="http://www.w3.org/1999/xlink" x="0px" y="0px"
	 width="100%" viewBox="0 0 164 164" enable-background="new 0 0 164 164" xml:space="preserve">
   <style type="text/css">
	.st0{fill:none;}
  .st1{fill:#f4f4f4;}
</style>
<path class="st0" opacity="1.000000" stroke="none" 
	d="
M115.000000,165.000000 
	C76.666672,165.000000 38.833344,165.000000 1.000010,165.000000 
	C1.000007,110.333344 1.000007,55.666687 1.000003,1.000025 
	C55.666653,1.000017 110.333305,1.000017 164.999969,1.000008 
	C164.999969,55.666641 164.999969,110.333282 164.999985,164.999969 
	C148.500000,165.000000 132.000000,165.000000 115.000000,165.000000 
M82.687737,22.888424 
	C72.226952,24.971869 67.488724,35.590897 74.240257,42.888512 
	C77.414177,46.319130 78.003403,49.517982 77.146469,53.990402 
	C69.763565,53.990402 62.294224,53.981987 54.824909,53.992249 
	C41.499466,54.010563 34.107430,61.302814 33.982288,74.511284 
	C33.968662,75.949455 33.828213,77.386421 33.749218,78.777687 
	C25.791664,79.141769 22.100859,81.641510 21.820631,87.075424 
	C21.715374,89.116432 21.945543,92.070160 23.232347,93.107841 
	C26.246325,95.538322 29.991367,97.062233 34.000046,99.259979 
	C34.000046,100.301331 33.898335,102.300209 34.017967,104.285759 
	C34.491550,112.146080 38.232685,118.202545 45.583710,120.802269 
	C51.215370,122.793930 52.899887,126.006889 52.943665,131.552643 
	C52.960655,133.704834 54.805191,136.942017 56.626274,137.675079 
	C58.492435,138.426300 61.846767,137.361572 63.666294,135.951584 
	C67.324265,133.116974 70.526657,129.637878 73.642677,126.177666 
	C76.328476,123.195190 79.431885,122.122932 83.377625,122.221161 
	C91.200798,122.415916 99.060493,121.850883 106.854431,122.366203 
	C123.578354,123.471947 133.808746,118.415764 133.878571,98.138359 
	C142.990250,96.022774 146.219498,93.240341 145.958099,87.730164 
	C145.696014,82.205261 142.086182,79.435387 133.718857,78.523323 
	C133.660156,77.614334 133.562698,76.656166 133.541580,75.696335 
	C133.207626,60.516712 126.537506,53.992599 111.335419,53.990486 
	C104.240791,53.989498 97.146164,53.990314 88.920555,53.990314 
	C90.085922,50.280960 90.252419,46.854805 92.009438,44.767483 
	C95.555504,40.554775 97.232147,36.237408 95.372322,31.050529 
	C93.430099,25.633883 89.306725,22.943436 82.687737,22.888424 
z"/>
<path class="st1" opacity="1.000000" stroke="none" 
	d="
M83.107513,22.874289 
	C89.306725,22.943436 93.430099,25.633883 95.372322,31.050529 
	C97.232147,36.237408 95.555504,40.554775 92.009438,44.767483 
	C90.252419,46.854805 90.085922,50.280960 88.920555,53.990314 
	C97.146164,53.990314 104.240791,53.989498 111.335419,53.990486 
	C126.537506,53.992599 133.207626,60.516712 133.541580,75.696335 
	C133.562698,76.656166 133.660156,77.614334 133.718857,78.523323 
	C142.086182,79.435387 145.696014,82.205261 145.958099,87.730164 
	C146.219498,93.240341 142.990250,96.022774 133.878571,98.138359 
	C133.808746,118.415764 123.578354,123.471947 106.854431,122.366203 
	C99.060493,121.850883 91.200798,122.415916 83.377625,122.221161 
	C79.431885,122.122932 76.328476,123.195190 73.642677,126.177666 
	C70.526657,129.637878 67.324265,133.116974 63.666294,135.951584 
	C61.846767,137.361572 58.492435,138.426300 56.626274,137.675079 
	C54.805191,136.942017 52.960655,133.704834 52.943665,131.552643 
	C52.899887,126.006889 51.215370,122.793930 45.583710,120.802269 
	C38.232685,118.202545 34.491550,112.146080 34.017967,104.285759 
	C33.898335,102.300209 34.000046,100.301331 34.000046,99.259979 
	C29.991367,97.062233 26.246325,95.538322 23.232347,93.107841 
	C21.945543,92.070160 21.715374,89.116432 21.820631,87.075424 
	C22.100859,81.641510 25.791664,79.141769 33.749218,78.777687 
	C33.828213,77.386421 33.968662,75.949455 33.982288,74.511284 
	C34.107430,61.302814 41.499466,54.010563 54.824909,53.992249 
	C62.294224,53.981987 69.763565,53.990402 77.146469,53.990402 
	C78.003403,49.517982 77.414177,46.319130 74.240257,42.888512 
	C67.488724,35.590897 72.226952,24.971869 83.107513,22.874289 
M127.171753,91.496681 
	C127.170784,85.338799 127.252357,79.179520 127.148010,73.023384 
	C127.016579,65.268906 122.111755,60.197235 114.323181,60.151928 
	C93.852921,60.032845 73.380852,60.018982 52.910885,60.161190 
	C45.510529,60.212605 40.330246,65.375404 40.178005,72.753548 
	C39.968613,82.901459 40.039337,93.057953 40.160641,103.208725 
	C40.222816,108.411430 42.333641,113.079010 47.350513,114.744431 
	C55.552551,117.467209 59.583828,122.619461 58.980228,132.141983 
	C62.843170,128.265625 66.134888,125.249504 69.085388,121.930099 
	C72.892647,117.646812 77.388443,115.808464 83.174362,115.977089 
	C93.318016,116.272697 103.476631,116.090904 113.628731,116.049690 
	C122.345360,116.014313 127.052963,111.270691 127.164467,102.480087 
	C127.206680,99.152008 127.171600,95.822945 127.171753,91.496681 
z"/>
<path class="st0" opacity="1.000000" stroke="none" 
	d="
M127.171753,91.995506 
	C127.171600,95.822945 127.206680,99.152008 127.164467,102.480087 
	C127.052963,111.270691 122.345360,116.014313 113.628731,116.049690 
	C103.476631,116.090904 93.318016,116.272697 83.174362,115.977089 
	C77.388443,115.808464 72.892647,117.646812 69.085388,121.930099 
	C66.134888,125.249504 62.843170,128.265625 58.980228,132.141983 
	C59.583828,122.619461 55.552551,117.467209 47.350513,114.744431 
	C42.333641,113.079010 40.222816,108.411430 40.160641,103.208725 
	C40.039337,93.057953 39.968613,82.901459 40.178005,72.753548 
	C40.330246,65.375404 45.510529,60.212605 52.910885,60.161190 
	C73.380852,60.018982 93.852921,60.032845 114.323181,60.151928 
	C122.111755,60.197235 127.016579,65.268906 127.148010,73.023384 
	C127.252357,79.179520 127.170784,85.338799 127.171753,91.995506 
M54.201443,83.004677 
	C51.372562,89.606323 53.523197,95.437759 59.372108,97.024918 
	C63.849068,98.239784 68.202362,96.338867 70.230751,92.283371 
	C72.247261,88.251625 71.137909,83.472870 67.550827,80.739113 
	C63.618584,77.742310 59.228283,78.307549 54.201443,83.004677 
M114.318230,85.411453 
	C113.069809,81.546715 110.387436,78.747383 106.411057,79.145760 
	C103.455353,79.441872 99.999718,80.951859 97.993935,83.078575 
	C94.949127,86.306953 95.557854,90.492989 98.343338,93.984764 
	C101.033173,97.356644 104.707985,98.074745 108.672195,96.878220 
	C112.866783,95.612144 114.932602,91.675545 114.318230,85.411453 
z"/>
<path class="st1" opacity="1.000000" stroke="none" 
	d="
M54.454998,82.698586 
	C59.228283,78.307549 63.618584,77.742310 67.550827,80.739113 
	C71.137909,83.472870 72.247261,88.251625 70.230751,92.283371 
	C68.202362,96.338867 63.849068,98.239784 59.372108,97.024918 
	C53.523197,95.437759 51.372562,89.606323 54.454998,82.698586 
z"/>
<path class="st1" opacity="1.000000" stroke="none" 
	d="
M114.478851,85.769318 
	C114.932602,91.675545 112.866783,95.612144 108.672195,96.878220 
	C104.707985,98.074745 101.033173,97.356644 98.343338,93.984764 
	C95.557854,90.492989 94.949127,86.306953 97.993935,83.078575 
	C99.999718,80.951859 103.455353,79.441872 106.411057,79.145760 
	C110.387436,78.747383 113.069809,81.546715 114.478851,85.769318 
z"/>
</svg>
