<svg xmlns="http://www.w3.org/2000/svg" xmlns:xlink="http://www.w3.org/1999/xlink" version="1.1" width="2624.3325990644853" height="3298.4532792631753" viewBox="0 -89.53598377895266 2624.3325990644853 3298.4532792631753">
    <g transform="scale(14.922663963158776) translate(10, 10)">
        <defs id="SvgjsDefs1032"/>
        <g id="SvgjsG1033" featureKey="symbolFeature-0" transform="matrix(7.743086814880371,0,0,7.743086814880371,-14.485708091037544,-21.412994072904574)" fill="#fff">
            <title xmlns="http://www.w3.org/2000/svg">_</title>
            <g xmlns="http://www.w3.org/2000/svg">
                <path d="M22,12.5A1.49995,1.49995,0,0,0,20.50006,11H20V10a3,3,0,0,0-3-3H13V5.7226a2,2,0,1,0-2,0V7H7a3,3,0,0,0-3,3v1H3.49994a1.5,1.5,0,0,0,0,3H4v1a3.00128,3.00128,0,0,0,2.20251,2.89282A1.03113,1.03113,0,0,1,7,18.86975v.716a.99928.99928,0,0,0,1.00726,1.002.9792.9792,0,0,0,.69983-.29486l2-2A1,1,0,0,1,11.41425,18H17a3,3,0,0,0,3-3V14h.50006A1.49995,1.49995,0,0,0,22,12.5ZM19,15a2.00226,2.00226,0,0,1-2,2H11.41425A1.987,1.987,0,0,0,10,17.58575l-2,2v-.716a2.02082,2.02082,0,0,0-1.53229-1.9411A2.00439,2.00439,0,0,1,5,15V10A2.00226,2.00226,0,0,1,7,8H17a2.00222,2.00222,0,0,1,2,2Zm-9-2.5A1.5,1.5,0,1,1,8.5,11,1.5,1.5,0,0,1,10,12.5Zm7,0A1.5,1.5,0,1,1,15.5,11,1.5,1.5,0,0,1,17,12.5Z"/>
            </g>
        </g>
        <g id="SvgjsG1034" featureKey="nameFeature-0" transform="matrix(1.0414930582046509,0,0,1.0414930582046509,27.875021205783707,153.0434930127191)" fill="#fff">
            <path d="M25.52 40 l-3.2 -7.44 l-15.88 0 l-3.2 7.44 l-3.12 0 l12.56 -29.16 l3.48 0 l12.6 29.16 l-3.24 0 z M21.16 29.759999999999998 l-6.8 -15.76 l-6.76 15.76 l13.56 0 z M49.068 40.32 c-4 0 -7.72 -1.56 -10.32 -4.12 c-1.28 -1.28 -2.32 -2.84 -3.08 -4.68 c-0.76 -1.88 -1.16 -3.88 -1.16 -6 c0 -2.16 0.4 -4.2 1.2 -6.08 s1.84 -3.48 3.16 -4.76 c2.68 -2.6 6.4 -4.16 10.32 -4.16 c3.08 0 5.88 0.92 7.76 2.24 c0.96 0.64 1.8 1.4 2.56 2.24 c1.48 1.72 2.28 3.44 2.72 5.12 l-2.92 1.04 c-0.24 -0.96 -0.64 -2 -1.72 -3.52 c-0.56 -0.76 -1.16 -1.44 -1.88 -2.04 s-1.64 -1.12 -2.8 -1.52 c-1.16 -0.44 -2.4 -0.64 -3.8 -0.64 c-3.04 0 -5.96 1.24 -8 3.28 c-2.08 2.08 -3.4 5.16 -3.4 8.6 c0 2.28 0.48 4.36 1.48 6.2 c0.96 1.84 2.32 3.28 4.12 4.32 c1.72 1.04 3.68 1.56 5.84 1.56 c2.68 0 5 -0.92 6.4 -2.04 c0.72 -0.56 1.36 -1.2 1.92 -2 c0.56 -0.76 0.96 -1.44 1.24 -2 c0.24 -0.56 0.48 -1.16 0.68 -1.76 l2.92 1.04 c-0.44 1.56 -1.2 3.16 -2.68 4.96 c-0.72 0.88 -1.6 1.68 -2.52 2.36 c-1.92 1.36 -4.84 2.36 -8.04 2.36 z M92.896 40 l-3.2 -7.44 l-15.88 0 l-3.2 7.44 l-3.12 0 l12.56 -29.16 l3.48 0 l12.6 29.16 l-3.24 0 z M88.536 29.759999999999998 l-6.8 -15.76 l-6.76 15.76 l13.56 0 z"/>
        </g>
    </g>
</svg>