<svg version="1.1" id="Capa_1" xmlns="http://www.w3.org/2000/svg" viewBox="0 0 32 32">
	<style type="text/css">
		.st0{fill:#FFFFFF;}
	</style>
	<path class="st0" d="M20.2,10.7h-2.5V8.2c0-0.7-0.6-1.2-1.2-1.2h-0.9c-0.4,0-0.8,0.3-0.8,0.7l-0.4,2.5l-1.5,2.2h-2.7v5.8h8.7
		c1.6,0,2.9-1.3,2.9-2.9v-2.9C21.8,11.5,21.1,10.7,20.2,10.7z M12.7,17.4H11v-4.2h1.7V17.4z M21,15.3c0,1.1-0.9,2.1-2.1,2.1h-5.4V13
		l1.6-2.5l0.4-2.6h0.9c0.2,0,0.4,0.2,0.4,0.4v3.3h3.3c0.5,0,0.8,0.4,0.8,0.8v2.9H21z"/>
	<path class="st0" d="M17.7,29L16,28l4-7h6c1.1,0,2-0.9,2-2l0,0V7c0-1.1-0.9-2-2-2l0,0H6C4.9,5,4,5.9,4,7l0,0v12c0,1.1,0.9,2,2,2
		l0,0h9v2H6c-2.2,0-4-1.8-4-4l0,0V7c0-2.2,1.8-4,4-4l0,0h20c2.2,0,4,1.8,4,4l0,0v12c0,2.2-1.8,4-4,4l0,0h-4.8L17.7,29z"/>
</svg>
