<?xml version="1.0" encoding="utf-8"?>
<!-- Generator: Adobe Illustrator 24.0.0, SVG Export Plug-In . SVG Version: 6.00 Build 0)  -->
<svg version="1.1" id="Capa_1" xmlns="http://www.w3.org/2000/svg" xmlns:xlink="http://www.w3.org/1999/xlink" x="0px" y="0px"
	 viewBox="0 0 21 20" style="enable-background:new 0 0 21 20;" xml:space="preserve">
<style type="text/css">
	.st0{fill:#0353E9;stroke:#FFFFFF;stroke-miterlimit:10;}
</style>
<g>
	<path class="st0" d="M13.7,9c0-2.3-1.9-4.2-4.2-4.2S5.4,6.8,5.4,9s1.9,4.2,4.2,4.2c1,0,1.9-0.4,2.7-1l2.9,2.9l0.4-0.4l-2.9-2.9
		C13.3,11,13.7,10.1,13.7,9z M13.1,9c0,0.9-0.4,1.8-1,2.5c-0.7,0.7-1.6,1-2.5,1C7.6,12.6,6,11,6,9s1.6-3.5,3.5-3.5S13.1,7.1,13.1,9z
		"/>
	<path class="st0" d="M10.4,9.1L9.8,7.8C9.8,7.7,9.7,7.6,9.6,7.6c-0.1,0-0.2,0-0.3,0.2L8.6,8.9L8.3,8.2C8.3,8.1,8.2,8,8,8
		c-0.1,0-0.2,0-0.3,0.2L6.6,10l0.6,0.3L7.9,9l0.2,0.8c0,0.1,0.1,0.2,0.3,0.2c0.1,0,0.2-0.1,0.3-0.2l0.8-1.3l0.6,1.3
		c0.1,0.1,0.2,0.2,0.3,0.2c0.1,0,0.2,0,0.3-0.1l1.5-2.5L11.7,7L10.4,9.1z"/>
</g>
</svg>
