<?xml version="1.0" encoding="utf-8"?>
<!-- Generator: Adobe Illustrator 24.0.0, SVG Export Plug-In . SVG Version: 6.00 Build 0)  -->
<svg version="1.1" id="Capa_1" xmlns="http://www.w3.org/2000/svg" xmlns:xlink="http://www.w3.org/1999/xlink" x="0px" y="0px"
	 viewBox="0 0 21 20" style="enable-background:new 0 0 21 20;" xml:space="preserve">
<style type="text/css">
	.st0{fill:#0353E9;stroke:#FFFFFF;stroke-miterlimit:10;}
</style>
<g>
	<path class="st0" d="M9.3,10.8L8.2,9.7l-0.5,0.5L9,11.5c0.1,0.1,0.1,0.1,0.2,0.1s0.2,0,0.2-0.1l2.7-2.7l0.1-0.1l-0.4-0.5L9.3,10.8z
		"/>
	<path class="st0" d="M14.5,9.6c0-2.4-2-4.4-4.4-4.4s-4.5,2-4.5,4.4s2,4.4,4.4,4.4c1.1,0,2.1-0.4,2.9-1.1l1.8,1.8l0.1,0.1l0.5-0.5
		l-1.9-1.9C14.1,11.7,14.5,10.7,14.5,9.6z M13.9,9.6c0,1-0.4,2-1.1,2.7c-0.7,0.7-1.7,1.1-2.7,1.1c-2.1,0-3.8-1.7-3.8-3.8
		S8,5.8,10.1,5.8S13.9,7.5,13.9,9.6z"/>
</g>
</svg>
