<svg id="Capa_1" data-name="Capa 1" xmlns="http://www.w3.org/2000/svg" viewBox="0 0 100 100"><defs><style>.cls-1{fill:#0530ad;}.cls-2{fill:#0f6fff;}</style></defs><title>logo VA _ USER icon_final</title><path class="cls-1" d="M46.43,88.08H12.27V80.37a15.11,15.11,0,0,1,9-13.79l14.93-6.64a9.53,9.53,0,0,0,5.66-8.71V49.34a1.33,1.33,0,0,0-.39-.94c-3.93-3.89-6.18-11.09-6.18-19.75,0-7.72,4-16.73,15.1-16.73s15.1,9,15.1,16.73c0,8.67-2.26,15.86-6.18,19.75a1.33,1.33,0,0,0-.39.94v1.89a9.29,9.29,0,0,0,.3,2.35H62a6.78,6.78,0,0,1-.43-2.35V49.88c5.71-6,6.57-15.85,6.57-21.23C68.1,19,62.62,9.27,50.36,9.27S32.61,19,32.61,28.65c0,5.38.87,15.19,6.57,21.23v1.35a6.87,6.87,0,0,1-4.09,6.29L20.16,64.16A17.76,17.76,0,0,0,9.63,80.37v9A1.32,1.32,0,0,0,11,90.73H48.71A6.18,6.18,0,0,1,46.43,88.08Z"/><rect class="cls-2" x="59.98" y="65.39" width="20.56" height="3.43"/><rect class="cls-2" x="64.26" y="72.24" width="11.99" height="3.43"/><path class="cls-1" d="M59.59,90.64a1.26,1.26,0,0,1-.59-.15,1.22,1.22,0,0,1-.65-1.08V84.07H54.66a4.52,4.52,0,0,1-4.52-4.51V61.49A4.52,4.52,0,0,1,54.66,57h31.2a4.51,4.51,0,0,1,4.51,4.51V79.56a4.51,4.51,0,0,1-4.51,4.51h-16l-9.54,6.36A1.23,1.23,0,0,1,59.59,90.64Zm-4.93-31.2a2.05,2.05,0,0,0-2,2.05V79.56a2.05,2.05,0,0,0,2,2h4.93a1.23,1.23,0,0,1,1.23,1.23v4.27l7.93-5.29a1.22,1.22,0,0,1,.69-.21H85.86a2.05,2.05,0,0,0,2-2V61.49a2.05,2.05,0,0,0-2-2.05Z"/></svg>