<?xml version="1.0" encoding="utf-8"?>
<!-- Generator: Adobe Illustrator 24.0.0, SVG Export Plug-In . SVG Version: 6.00 Build 0)  -->
<svg version="1.1" id="Capa_1" xmlns="http://www.w3.org/2000/svg" xmlns:xlink="http://www.w3.org/1999/xlink" x="0px" y="0px"
	 viewBox="0 0 230 230" style="enable-background:new 0 0 230 230;" xml:space="preserve">
<style type="text/css">
	.st0{fill:#FFFFFF;}
	.st1{fill:#0F6FFF;}
	.st2{fill:#0530AD;}
</style>
<g>
	<path class="st0" d="M201.8,224.5H28.2C14.9,224.5,4,213.6,4,200.4V29.6C4,16.4,14.9,5.5,28.2,5.5h173.6
		c13.3,0,24.1,10.9,24.1,24.1v170.7C226,213.6,215.1,224.5,201.8,224.5z"/>
	<g>
		<path class="st1" d="M36.8,120v15.4c0,6.4,5.2,11.5,11.5,11.5H56v-7.7h-7.7c-2.1,0-3.8-1.7-3.8-3.8V120c0-2.1,1.7-3.8,3.8-3.8H56
			v-7.7h-7.7C42,108.5,36.8,113.6,36.8,120z"/>
		<g>
			<g>
				<path class="st2" d="M128.8,142.6c-9.9,3.8-20.4,3.8-30.3,0c-3.7-1.4-2.1-7.5,1.7-6c9,3.5,18,3.5,27,0
					C130.9,135.1,132.5,141.2,128.8,142.6z"/>
				<path class="st2" d="M91.3,115c-0.8,3.9-6.9,2.3-6-1.7c2.4-11.4,19-11.4,21.4,0c0.8,3.9-5.2,5.6-6,1.7
					C99.5,109.6,92.4,109.6,91.3,115z"/>
				<path class="st2" d="M142,113.3c0.8,3.9-5.2,5.6-6,1.7c-1.2-5.4-8.2-5.4-9.3,0c-0.8,3.9-6.9,2.3-6-1.7
					C123,101.9,139.5,101.9,142,113.3z"/>
			</g>
			<g>
				<path class="st2" d="M57.4,179.3l1.9-1.9c0.9,1,2,1.5,3.3,1.5c1.4,0,2.1-0.6,2.1-1.6c0-0.7-0.3-1.2-1.5-1.4l-1.3-0.2
					c-2.8-0.4-4-1.7-4-3.9c0-2.3,1.8-4,4.9-4c2,0,3.5,0.7,4.5,1.8l-1.9,1.9c-0.6-0.7-1.5-1.2-2.8-1.2c-1.3,0-1.9,0.5-1.9,1.3
					c0,0.9,0.5,1.2,1.6,1.4l1.3,0.2c2.7,0.4,4,1.6,4,3.9c0,2.5-1.8,4.3-5.1,4.3C60.1,181.4,58.5,180.5,57.4,179.3z"/>
				<path class="st2" d="M78.5,181.2h-9.3v-2.6l4-3.5c1.5-1.3,2-2,2-3.1v-0.3c0-1-0.9-1.5-1.7-1.5c-1.2,0-1.8,0.8-2.1,1.8l-2.5-0.9
					c0.6-1.8,2.1-3.3,4.8-3.3c2.8,0,4.5,1.7,4.5,3.9c0,2.3-1.6,3.6-3.5,5.1l-2.4,1.9h6.2V181.2z"/>
				<path class="st2" d="M80.7,181.2v-13.1h6.2c2.4,0,4,1.7,4,4.2c0,2.5-1.5,4.2-4,4.2h-3.3v4.7H80.7z M83.5,174h3
					c0.8,0,1.4-0.5,1.4-1.3v-0.8c0-0.8-0.5-1.3-1.4-1.3h-3V174z"/>
				<path class="st2" d="M100.1,181.2l-4.2-13.1h2.9l2,6.3l1,4.1h0.1l1-4.1l2-6.3h2.8l-4.3,13.1H100.1z"/>
				<path class="st2" d="M108.5,181.2v-2.3h1.7v-8.6h-1.7v-2.3h6.2v2.3h-1.7v8.6h1.7v2.3H108.5z"/>
				<path class="st2" d="M119.8,181.2H117v-13.1h6.2c2.4,0,4,1.7,4,4.2c0,1.8-0.8,3.2-2.4,3.8l2.6,5.1h-3.2l-2.3-4.8h-2V181.2z
					 M122.8,174c0.8,0,1.4-0.5,1.4-1.3v-0.8c0-0.8-0.5-1.3-1.4-1.3h-3v3.4H122.8z"/>
				<path class="st2" d="M134.4,170.6v10.6h-2.9v-10.6H128v-2.5h9.9v2.5H134.4z"/>
				<path class="st2" d="M142.4,168.1v8c0,1.8,0.7,2.8,2.4,2.8c1.7,0,2.4-0.9,2.4-2.8v-8h2.8v7.7c0,3.9-1.4,5.6-5.1,5.6
					c-3.8,0-5.1-1.7-5.1-5.6v-7.7H142.4z"/>
				<path class="st2" d="M160.1,181.2l-0.9-3.1h-4.4l-0.9,3.1H151l4.3-13.1h3.5l4.3,13.1H160.1z M157.1,170.7L157.1,170.7l-1.5,5h3
					L157.1,170.7z"/>
				<path class="st2" d="M164.7,181.2v-13.1h2.9v10.6h5v2.5H164.7z"/>
			</g>
			<g>
				<path class="st1" d="M67.6,201.2l-1.4-4.2h-5.8l-1.3,4.2h-2.5l5.3-15.4h3.1l5.3,15.4H67.6z M63.4,188.1h-0.1l-2.2,6.8h4.6
					L63.4,188.1z"/>
				<path class="st1" d="M71.6,198.9l1.7-1.6c1.1,1.3,2.4,2,4,2c2,0,3-1,3-2.5c0-1.2-0.6-1.9-2.4-2.2l-1.4-0.2
					c-3-0.6-4.5-1.9-4.5-4.4c0-2.7,2.1-4.4,5.4-4.4c2.3,0,4,0.8,5.2,2.4l-1.7,1.5c-0.8-1-1.9-1.7-3.6-1.7c-1.8,0-2.8,0.7-2.8,2.1
					c0,1.3,0.8,1.8,2.5,2.2l1.4,0.3c3.1,0.6,4.5,2,4.5,4.4c0,2.9-2.1,4.8-5.6,4.8C74.6,201.5,72.8,200.5,71.6,198.9z"/>
				<path class="st1" d="M84.5,198.9l1.7-1.6c1.1,1.3,2.4,2,4,2c2,0,3-1,3-2.5c0-1.2-0.6-1.9-2.4-2.2l-1.4-0.2
					c-3-0.6-4.5-1.9-4.5-4.4c0-2.7,2.1-4.4,5.4-4.4c2.3,0,4,0.8,5.2,2.4l-1.7,1.5c-0.8-1-1.9-1.7-3.6-1.7c-1.8,0-2.8,0.7-2.8,2.1
					c0,1.3,0.8,1.8,2.5,2.2l1.4,0.3c3.1,0.6,4.5,2,4.5,4.4c0,2.9-2.1,4.8-5.6,4.8C87.6,201.5,85.8,200.5,84.5,198.9z"/>
				<path class="st1" d="M98.1,201.2v-2h2.1v-11.4h-2.1v-2h6.7v2h-2.1v11.4h2.1v2H98.1z"/>
				<path class="st1" d="M106.9,198.9l1.7-1.6c1.1,1.3,2.4,2,4,2c2,0,3-1,3-2.5c0-1.2-0.6-1.9-2.4-2.2l-1.4-0.2
					c-3-0.6-4.5-1.9-4.5-4.4c0-2.7,2.1-4.4,5.4-4.4c2.3,0,4,0.8,5.2,2.4l-1.7,1.5c-0.8-1-1.9-1.7-3.6-1.7c-1.8,0-2.8,0.7-2.8,2.1
					c0,1.3,0.8,1.8,2.5,2.2l1.4,0.3c3.1,0.6,4.5,2,4.5,4.4c0,2.9-2.1,4.8-5.6,4.8C109.9,201.5,108.2,200.5,106.9,198.9z"/>
				<path class="st1" d="M124,188h-4.6v-2.2h11.7v2.2h-4.6v13.2H124V188z"/>
				<path class="st1" d="M141.7,201.2l-1.4-4.2h-5.8l-1.3,4.2h-2.5l5.3-15.4h3.1l5.3,15.4H141.7z M137.5,188.1h-0.1l-2.2,6.8h4.6
					L137.5,188.1z"/>
				<path class="st1" d="M150.8,192.7l-1.7-3.3h-0.1v11.8h-2.4v-15.4h2.8l5,8.5l1.7,3.3h0.1v-11.8h2.4v15.4h-2.8L150.8,192.7z"/>
				<path class="st1" d="M165.7,188h-4.6v-2.2h11.7v2.2h-4.6v13.2h-2.5V188z"/>
			</g>
			<g>
				<rect x="153" y="59" class="st1" width="27.4" height="4.6"/>
				<rect x="158.7" y="68.1" class="st1" width="16" height="4.6"/>
				<path class="st2" d="M143.5,57.2c0-2.9,2.3-5.2,5.2-5.2h35.8c2.9,0,5.2,2.3,5.2,5.2v17.9c0,2.9-2.3,5.2-5.2,5.2h-10.4v3.5h10.4
					c4.8,0,8.7-3.9,8.7-8.7V57.2c0-4.8-3.9-8.7-8.7-8.7h-35.8c-4.8,0-8.7,3.9-8.7,8.7v14.8c1.2,0,2.4,0,3.5,0V57.2z"/>
			</g>
			<path class="st1" d="M180.4,108.5h-7.7v7.7h7.7c2.1,0,3.8,1.7,3.8,3.8v15.4c0,2.1-1.7,3.8-3.8,3.8h-7.7v7.7h7.7
				c6.4,0,11.5-5.2,11.5-11.5V120C191.9,113.6,186.7,108.5,180.4,108.5z"/>
			<path class="st1" d="M106.8,51.5h11.5c6.4,0,11.5-5.2,11.5-11.5s-5.2-11.5-11.5-11.5h-11.5c-6.4,0-11.5,5.2-11.5,11.5
				S100.4,51.5,106.8,51.5z M106.8,36.2h11.5c2.1,0,3.8,1.7,3.8,3.8c0,2.1-1.7,3.8-3.8,3.8h-11.5c-2.1,0-3.8-1.7-3.8-3.8
				C102.9,37.9,104.7,36.2,106.8,36.2z"/>
			<path class="st2" d="M143.3,81.6h-26.9v-23h-7.7v23h-23c-12.7,0-23,10.3-23,23v57.6h103.7v-57.6C166.4,91.9,156,81.6,143.3,81.6z
				 M158.7,154.5H70.3v-49.9c0-8.5,6.9-15.4,15.4-15.4h57.6c8.5,0,15.4,6.9,15.4,15.4V154.5z"/>
		</g>
	</g>
</g>
</svg>
