<?xml version="1.0" encoding="utf-8"?>
<!-- Generator: Adobe Illustrator 24.0.0, SVG Export Plug-In . SVG Version: 6.00 Build 0)  -->
<svg version="1.1" id="Capa_1" xmlns="http://www.w3.org/2000/svg" xmlns:xlink="http://www.w3.org/1999/xlink" x="0px" y="0px"
	 viewBox="0 0 32 32" style="enable-background:new 0 0 32 32;" xml:space="preserve">
<style type="text/css">
	.st0{fill:#FFFFFF;}
</style>
<g>
	<path class="st0" d="M3.6,19.9v2.4c0,1,0.8,1.8,1.8,1.8h1.2v-1.2H5.4c-0.3,0-0.6-0.3-0.6-0.6v-2.4c0-0.3,0.3-0.6,0.6-0.6h1.2v-1.2
		H5.4C4.4,18.1,3.6,19,3.6,19.9z"/>
	<g>
		<path class="st0" d="M18.2,23.5c-1.6,0.6-3.2,0.6-4.8,0c-0.6-0.2-0.3-1.2,0.3-0.9c1.4,0.5,2.9,0.5,4.3,0
			C18.5,22.4,18.8,23.2,18.2,23.5z"/>
		<path class="st0" d="M12.2,19.1c-0.1,0.6-1.1,0.3-0.9-0.3c0.4-1.8,3-1.8,3.4,0c0.1,0.6-0.8,0.9-0.9,0.3
			C13.5,18.2,12.4,18.4,12.2,19.1z"/>
		<path class="st0" d="M20.3,18.9c0.1,0.6-0.8,0.9-0.9,0.3c-0.2-0.8-1.3-0.8-1.5,0c-0.1,0.6-1.1,0.3-0.9-0.3
			C17.3,17,19.9,17,20.3,18.9z"/>
	</g>
	<g>
		<rect x="22" y="10.2" class="st0" width="4.3" height="0.7"/>
		<rect x="22.9" y="11.8" class="st0" width="2.5" height="0.7"/>
		<path class="st0" d="M20.5,9.9c0-0.4,0.4-0.8,0.8-0.8H27c0.4,0,0.8,0.4,0.8,0.8v2.8c0,0.4-0.4,0.8-0.8,0.8h-1.7v0.6H27
			c0.8,0,1.4-0.6,1.4-1.4V9.9c0-0.8-0.6-1.4-1.4-1.4h-5.7c-0.8,0-1.4,0.6-1.4,1.4v2.4c0.2,0,0.4,0,0.6,0V9.9z"/>
	</g>
	<path class="st0" d="M26.3,18.1h-1.2v1.2h1.2c0.3,0,0.6,0.3,0.6,0.6v2.4c0,0.3-0.3,0.6-0.6,0.6h-1.2v1.2h1.2c1,0,1.8-0.8,1.8-1.8
		V20C28.2,19,27.3,18.1,26.3,18.1z"/>
	<path class="st0" d="M14.7,9.1h1.8c1,0,1.8-0.8,1.8-1.8s-0.8-1.8-1.8-1.8h-1.8c-1,0-1.8,0.8-1.8,1.8S13.7,9.1,14.7,9.1z M14.7,6.7
		h1.8c0.3,0,0.6,0.3,0.6,0.6c0,0.3-0.3,0.6-0.6,0.6h-1.8c-0.3,0-0.6-0.3-0.6-0.6S14.4,6.7,14.7,6.7z"/>
	<path class="st0" d="M20.5,13.8h-4.3v-3.6H15v3.6h-3.6c-2,0-3.6,1.6-3.6,3.6v9.1h16.4v-9.1C24.1,15.4,22.5,13.8,20.5,13.8z
		 M22.9,25.4h-14v-7.9c0-1.3,1.1-2.4,2.4-2.4h9.1c1.3,0,2.4,1.1,2.4,2.4C22.9,17.5,22.9,25.4,22.9,25.4z"/>
</g>
</svg>
