<?xml version="1.0" encoding="utf-8"?>
<!-- Generator: Adobe Illustrator 24.0.0, SVG Export Plug-In . SVG Version: 6.00 Build 0)  -->
<svg version="1.1" id="Capa_1" xmlns="http://www.w3.org/2000/svg" xmlns:xlink="http://www.w3.org/1999/xlink" x="0px" y="0px"
	 viewBox="0 0 100 100" style="enable-background:new 0 0 100 100;" xml:space="preserve">
<style type="text/css">
	.st0{fill:#0F6FFF;}
	.st1{fill:#0530AD;}
</style>
<g>
	<path class="st0" d="M10.5,62.5v7.8c0,3.2,2.6,5.8,5.8,5.8h3.9v-3.9h-3.9c-1.1,0-1.9-0.9-1.9-1.9v-7.8c0-1.1,0.9-1.9,1.9-1.9h3.9
		v-3.9h-3.9C13.1,56.7,10.5,59.2,10.5,62.5z"/>
	<g>
		<path class="st1" d="M57,73.9c-5,1.9-10.3,1.9-15.3,0c-1.9-0.7-1.1-3.8,0.8-3c4.5,1.7,9.1,1.7,13.6,0C58,70.2,58.8,73.2,57,73.9z"
			/>
		<path class="st1" d="M38,60c-0.4,2-3.5,1.1-3-0.8c1.2-5.8,9.6-5.8,10.8,0c0.4,2-2.6,2.8-3,0.8C42.1,57.2,38.6,57.2,38,60z"/>
		<path class="st1" d="M63.6,59.2c0.4,2-2.6,2.8-3,0.8c-0.6-2.7-4.1-2.7-4.7,0c-0.4,2-3.5,1.1-3-0.8C54.1,53.4,62.4,53.4,63.6,59.2z
			"/>
	</g>
	<g>
		<rect x="69.2" y="31.7" class="st0" width="13.8" height="2.3"/>
		<rect x="72.1" y="36.2" class="st0" width="8.1" height="2.3"/>
		<path class="st1" d="M64.4,30.8c0-1.4,1.2-2.6,2.6-2.6h18.1c1.4,0,2.6,1.2,2.6,2.6v9c0,1.4-1.2,2.6-2.6,2.6h-5.3v1.8h5.3
			c2.4,0,4.4-2,4.4-4.4v-9c0-2.4-2-4.4-4.4-4.4H67c-2.4,0-4.4,2-4.4,4.4v7.5c0.6,0,1.2,0,1.8,0V30.8z"/>
	</g>
	<path class="st0" d="M83,56.7h-3.9v3.9H83c1.1,0,1.9,0.9,1.9,1.9v7.8c0,1.1-0.9,1.9-1.9,1.9h-3.9v3.9H83c3.2,0,5.8-2.6,5.8-5.8
		v-7.8C88.8,59.2,86.2,56.7,83,56.7z"/>
	<path class="st0" d="M45.9,27.9h5.8c3.2,0,5.8-2.6,5.8-5.8s-2.6-5.8-5.8-5.8h-5.8c-3.2,0-5.8,2.6-5.8,5.8S42.6,27.9,45.9,27.9z
		 M45.9,20.2h5.8c1.1,0,1.9,0.9,1.9,1.9S52.7,24,51.7,24h-5.8c-1.1,0-1.9-0.9-1.9-1.9S44.8,20.2,45.9,20.2z"/>
	<path class="st1" d="M64.3,43.1H50.7V31.5h-3.9v11.6H35.2c-6.4,0-11.6,5.2-11.6,11.6v29.1H76v-29C75.9,48.2,70.7,43.1,64.3,43.1z
		 M72.1,80H27.4V54.8c0-4.3,3.5-7.8,7.8-7.8h29.1c4.3,0,7.8,3.5,7.8,7.8C72.1,54.8,72.1,80,72.1,80z"/>
</g>
</svg>
