<svg xmlns="http://www.w3.org/2000/svg" xmlns:xlink="http://www.w3.org/1999/xlink" viewBox="0 0 98 80" class="c0212"><linearGradient id="lina-widget-a"><stop offset="0" stop-color="#fff"></stop><stop offset="0.28" stop-color="#fdfdfe"></stop><stop offset="0.42" stop-color="#f5f8fa"></stop><stop offset="0.53" stop-color="#e8eff4"></stop><stop offset="0.62" stop-color="#d6e2ea"></stop><stop offset="0.7" stop-color="#bdd2de"></stop><stop offset="0.8" stop-color="#a0bdcf"></stop><stop offset="0.96" stop-color="#5487bd"></stop></linearGradient><linearGradient xlink:href="#lina-widget-a" id="lina-widget-c" x1="47.6663%" x2="52.5166%" y1="56.5346%" y2="42.3145%"></linearGradient><linearGradient xlink:href="#lina-widget-a" id="lina-widget-d" x1="6.5067%" x2="103.8827%" y1="54.6934%" y2="54.849%"></linearGradient><linearGradient xlink:href="#lina-widget-a" id="lina-widget-e" x1="-.0127%" x2="100%" y1="50.0071%" y2="50.0071%"></linearGradient><linearGradient id="lina-widget-b"><stop offset="0.27" stop-color="#c6c6c6"></stop><stop offset="0.67" stop-color="#c5c5c6"></stop><stop offset="0.71" stop-color="#c1c3c5"></stop><stop offset="0.76" stop-color="#b5bcc0"></stop><stop offset="0.81" stop-color="#a2b0b9"></stop><stop offset="0.86" stop-color="#869fb0"></stop><stop offset="0.9" stop-color="#5487bd"></stop><stop offset="0.94" stop-color="#5487bd"></stop><stop offset="1" stop-color="#055282"></stop><stop offset="1" stop-color="#5487bd"></stop></linearGradient><linearGradient xlink:href="#lina-widget-b" id="lina-widget-f" x1="52.6819%" x2="48.6984%" y1="6.2076%" y2="87.2373%"></linearGradient><linearGradient xlink:href="#lina-widget-b" id="lina-widget-g" x1="50.0451%" x2="48.6695%" y1="45.1394%" y2="54.834%"></linearGradient><g fill="none" fill-rule="evenodd"><path fill="url(#lina-widget-c)" fill-rule="nonzero" d="M49.4864 22.6416c-.6467.0031-1.1739-.5148-1.1783-1.1576V4.7637c-.02-.4165.1855-.812.539-1.0366a1.1776 1.1776 0 0 1 1.1728-.0515 1.164 1.164 0 0 1 .6288.9854v16.8162c.0012.64-.5184 1.1606-1.1623 1.1644z"></path><ellipse cx="49.4784" cy="2.7146" fill="url(#lina-widget-d)" fill-rule="nonzero" rx="2.6794" ry="2.7146"></ellipse><path fill="#ececec" fill-rule="nonzero" d="M6.4232 33.0103a1.916 1.916 0 0 1-.975.3539 2.9857 2.9857 0 0 1-1.0991-.1336c-1.0337-.3105-2.1534-1.1244-3.032-2.3128-1.547-2.0856-1.7572-4.5342-.4927-5.4612 1.0554-.7717 2.8023-.2637 4.2493 1.1165.3133.299.6.6245.8568.9726.8694 1.1769 1.3208 2.4669 1.3185 3.5388.0023.8276-.2676 1.5194-.8258 1.9258z"></path><path fill="#5487bd" fill-rule="nonzero" d="M89.9667 40.831a1.006 1.006 0 0 1-.7132-.2956l-8.4447-8.4897c-3.043-3.0831-7.9391-3.379-11.3355-.685l-.364.2911c-1.7779 1.4178-3.612 2.8813-5.4392 1.6507l-3.2973-.2922c-.5476-.038-.9626-.5066-.9312-1.0513.0315-.5447.4977-.963 1.046-.9385l.0598.0058 3.8887.3424.2412.1964c.4915.4064 1.0198.25 3.1732-1.4704l.3687-.2922c4.1958-3.3328 10.2479-2.9708 14.0114.838l8.4447 8.4896a.9899.9899 0 0 1 .2124 1.0831 1.0005 1.0005 0 0 1-.9244.611z"></path><path fill="#ececec" fill-rule="nonzero" d="M97.9991 40.8813c.0494 1.564-2.0236 2.904-4.633 2.9931-1.4837.048-2.8206-.3253-3.706-.9463a2.8991 2.8991 0 0 1-.7776-.7763c-.3043-.75-.0367-1.8265.6891-2.8128.8453-.67 2.1465-1.1164 3.6189-1.1586a7.95 7.95 0 0 1 1.2977.0662c1.9835.2797 3.4765 1.3322 3.511 2.6347z"></path><path fill="#0a4c63" fill-rule="nonzero" d="M93.1824 41.7123c-1.1484 1.1176-2.5944 1.5868-3.5223 1.2158a2.8991 2.8991 0 0 1-.7776-.7763c-.3043-.75-.0367-1.8265.6891-2.8128.8453-.67 2.1465-1.1164 3.6189-1.1586a7.95 7.95 0 0 1 1.2977.0662c.3434.9303-.155 2.3481-1.3058 3.4657z" opacity="0.07"></path><ellipse cx="91.497" cy="39.7483" fill="#ececec" fill-rule="nonzero" rx="3.4845" ry="2.1468" transform="rotate(-44.36 91.497 39.7483)"></ellipse><path fill="#5487bd" fill-rule="nonzero" d="M34.601 44.4852a1.0115 1.0115 0 0 1-.5639-.1724l-2.7356-1.8562c-2.1982-.2009-2.6794-2.492-3.1469-4.71l-.0941-.4464c-.899-4.2253-4.8672-7.0904-9.1878-6.6335L6.9159 31.8973a1.0042 1.0042 0 0 1-.9393-.3948.9904.9904 0 0 1-.1042-1.0084 1.0014 1.0014 0 0 1 .839-.5763l11.9511-1.2306c5.34-.565 10.2445 2.9763 11.355 8.1986l.0976.4567c.5639 2.6803.8717 3.1404 1.5102 3.1404h.317l3.225 2.1895a.9912.9912 0 0 1 .3946 1.116c-.1296.4179-.5187.7025-.9586.7013z"></path><path fill="url(#lina-widget-e)" fill-rule="nonzero" d="M74.6013 32.9315h-.0092a24.6863 24.6863 0 0 1-.804 6.2785 16.9836 16.9836 0 0 1-.0585.2284c-.0368.1392-.0758.2762-.1149.4143-.1102.3806-.229.7557-.356 1.1256l-.047.137a24.3276 24.3276 0 0 1-1.0096 2.4703 23.4557 23.4557 0 0 1-.7672 1.484.1914.1914 0 0 1-.0184.0343c-.2434.4292-.5.8588-.7694 1.2888l-.0299.0468c-.0356.0548-.0712.1142-.108.1632-.0367.0491-.0654.1016-.0987.1519a24.7823 24.7823 0 0 1-1.6263 2.177 26.716 26.716 0 0 1-.689.799l-.007.008c-.3973.4376-.807.8561-1.2288 1.2557-8.3173 7.9532-21.3502 9.412-31.374 2.814a24.9876 24.9876 0 0 1-3.1147-2.4213 32.6641 32.6641 0 0 1-.4123-.3836 24.8753 24.8753 0 0 1-1.245-1.2774c-.078-.0822-.1527-.1655-.2296-.2488a31.146 31.146 0 0 1-.3595-.4156l-.007-.008c-.0757-.0901-.1504-.1792-.2296-.2705s-.1424-.1758-.217-.2671c-.131-.1644-.26-.3303-.3871-.4977l-.1677-.2226a28.4392 28.4392 0 0 1-.5742-.8048c-.0597-.088-.1149-.1747-.1769-.2637a26.4842 26.4842 0 0 1-.99-1.6142.3065.3065 0 0 0-.0183-.033 29.1118 29.1118 0 0 1-.5743-1.0903.3006.3006 0 0 0-.0172-.0342c-.0448-.0982-.093-.194-.1401-.29-.0655-.1347-.1287-.274-.1918-.411-.0184-.0387-.0356-.0798-.0528-.114l-.0276-.0594a19.2827 19.2827 0 0 1-.4284-1.0274c-.1148-.29-.2216-.58-.3239-.8722-.016-.0457-.0333-.0925-.0493-.1393a.2376.2376 0 0 1-.0092-.0262 21.8312 21.8312 0 0 1-.1608-.4852 12.3806 12.3806 0 0 1-.1149-.3664 21.3662 21.3662 0 0 1-.2389-.8436c0-.0103-.0057-.0206-.008-.0308a20.53 20.53 0 0 1-.1413-.5526c-.0608-.2534-.1148-.509-.17-.7637a24.5271 24.5271 0 0 1-.2239-1.2488 8.6504 8.6504 0 0 1-.0436-.3014 20.591 20.591 0 0 1-.1149-.968l-.0275-.2854a.0749.0749 0 0 1 0-.016c-.007-.0845-.015-.1667-.0207-.25 0-.0365-.0057-.073-.008-.1084a20.1566 20.1566 0 0 1-.0184-.2626c-.008-.1244-.0138-.2489-.0207-.3744 0-.0754 0-.1507-.0103-.2283s-.0058-.145-.007-.217V33.58c-.2437-9.3411 4.7628-18.0408 12.987-22.5673a25.9655 25.9655 0 0 1 1.902-.9452c.5098-.2284 1.0335-.4475 1.5572-.6359 13.057-4.7957 27.5531 1.838 32.3836 14.815a24.928 24.928 0 0 1 1.5585 8.685z"></path><path fill="url(#lina-widget-f)" fill-rule="nonzero" d="M70.631 46.3687c-.0666.1039-.1355.21-.2067.315a25.1835 25.1835 0 0 1-3.5603 4.2592c-8.3138 7.944-21.3352 9.4041-31.3534 2.815a25.168 25.168 0 0 1-3.1215-2.4246c-.1367-.1278-.2745-.2545-.4089-.3835a23.9658 23.9658 0 0 1-1.4735-1.5263 22.3427 22.3427 0 0 1-.4134-.4783 26.4898 26.4898 0 0 1-.3997-.4874 20.653 20.653 0 0 1-.3882-.4978 21.0267 21.0267 0 0 1-.1906-.2545 24.754 24.754 0 0 1-.5501-.7729l-.177-.2625a26.0553 26.0553 0 0 1-.9888-1.6153l-.0183-.0331a27.0077 27.0077 0 0 1-.5743-1.0902 21.0527 21.0527 0 0 1-.1573-.3253c-.0655-.1347-.1286-.2729-.1918-.4099a24.9945 24.9945 0 0 1-.8912-2.2374 26.6818 26.6818 0 0 1-.162-.4852 45.5203 45.5203 0 0 1-.1148-.3664 25.5134 25.5134 0 0 1-.387-1.428 42.9957 42.9957 0 0 1-.17-.7626 33.612 33.612 0 0 1-.2297-1.25 12.3985 12.3985 0 0 1-.0448-.3014c-.046-.322-.0838-.645-.1148-.968-.0104-.0948-.0184-.1907-.0276-.2854a.0692.0692 0 0 1 0-.016 6.7346 6.7346 0 0 1-.0207-.25c0-.0354-.0069-.073-.0092-.1085 0-.0867-.0126-.1746-.0172-.2614a13.3816 13.3816 0 0 1-.0207-.3744c0-.0833-.008-.169-.0115-.2523 0-.1141-.008-.2169-.0103-.3253-.2415-9.3394 4.7634-18.037 12.9847-22.5651.6213-.3425 1.2633-.6575 1.9064-.9463-4.7478 4.662-5.6459 12.2705-4.0047 19.275 1.8043 7.7318 5.8434 12.8243 11.773 15.6896a25.3215 25.3215 0 0 0 3.898 1.484l.3709.1062c.2676.0753.5363.1484.804.2134a36.1494 36.1494 0 0 0 6.243.9532c1.0934.081 2.2189.1142 3.3731.121h.0712a27.665 27.665 0 0 0 5.8274-.549 21.512 21.512 0 0 0 2.2211-.5971c.3124-.1016.6225-.2157.9372-.3402z" opacity="0.19"></path><path fill="url(#lina-widget-g)" fill-rule="nonzero" d="M70.5092 46.6084c-.031.0514-.0643.1005-.0976.1507a24.7823 24.7823 0 0 1-1.6262 2.177 26.594 26.594 0 0 1-.6891.799l-.0069.008c-.3974.4376-.807.8562-1.2289 1.2558-8.3172 7.9532-21.3501 9.412-31.374 2.8139a24.9876 24.9876 0 0 1-3.1147-2.4212 32.6648 32.6648 0 0 1-.4123-.3836 24.8753 24.8753 0 0 1-1.2449-1.2774c-.0781-.0822-.1528-.1655-.2297-.2489a31.1453 31.1453 0 0 1-.3595-.4155l-.0069-.008c-.0758-.0902-.1504-.1792-.2297-.2705-.0792-.0914-.1435-.1804-.2182-.2717a26.9284 26.9284 0 0 1-.387-.4977l-.1677-.2226a28.4392 28.4392 0 0 1-.5742-.8048c-.0597-.088-.1149-.1747-.1769-.2637a26.4842 26.4842 0 0 1-.99-1.6142.3065.3065 0 0 0-.0183-.033 29.1118 29.1118 0 0 1-.5743-1.0903.3006.3006 0 0 0-.0172-.0342c-.0448-.0982-.093-.194-.1401-.29-.0655-.1347-.1287-.274-.1918-.411-.0184-.0387-.0356-.0798-.0528-.114l-.0276-.0594a19.2827 19.2827 0 0 1-.4284-1.0274c5.4897.7031 12.013 1.1221 17.8335 1.2716a21.4005 21.4005 0 0 0 3.1262 1.8436 25.2312 25.2312 0 0 0 3.8979 1.4898l.3698.1073c.2676.0742.5363.1472.8097.2123a36.2926 36.2926 0 0 0 6.2442.9543c1.0934.08 2.2189.1142 3.372.12h.0723a27.665 27.665 0 0 0 5.8274-.5492 21.879 21.879 0 0 0 2.2211-.5959c.27-.0924.541-.1917.8108-.299z" opacity="0.19"></path><path fill="#ececec" fill-rule="nonzero" d="M8.6639 30.6416c-.2297-1.0434-.9487-2.2067-2.0523-3.1701a7.4697 7.4697 0 0 0-1.0475-.766 1.423 1.423 0 0 1 .5582-.186c1.1818-.1268 2.3084 1.3161 2.5175 3.2237a5.581 5.581 0 0 1 .024.8984z" opacity="0.07"></path><path fill="#0a4c63" fill-rule="nonzero" d="M8.6639 30.6416c-.0666 1.2226-.5524 2.234-1.2633 2.6187a2.9652 2.9652 0 0 1-1.1014.105c-.9498-.3014-1.764-1.564-1.9375-3.161-.1734-1.597.3445-2.9965 1.2047-3.5011a7.4002 7.4002 0 0 1 1.0475.766c1.1013.9657 1.8214 2.129 2.05 3.1724z" opacity="0.07"></path><ellipse cx="6.9146" cy="29.7487" fill="#ececec" fill-rule="nonzero" rx="2.1532" ry="3.474" transform="rotate(-6.19 6.9146 29.7487)"></ellipse><path stroke="#5487bd" stroke-width="1.9931" d="M56.8573 35.928h-13.97c-4.9442 0-8.9903-2.4862-8.9903-7.4017 0-4.9156 4.0461-7.1918 8.9903-7.1918h13.97c4.9454 0 8.9914 2.2762 8.9914 7.1918.0023 4.9063-4.0437 7.4018-8.9914 7.4018z"></path><g fill-rule="nonzero"><path fill="#81d7ea" d="M56.8573 35.8048h-13.97c-4.9442 0-8.9903-2.4863-8.9903-7.4018 0-4.9156 4.0461-7.1918 8.9903-7.1918h13.97c4.9454 0 8.9914 2.2762 8.9914 7.1918.0023 4.9064-4.0437 7.4018-8.9914 7.4018z" opacity="0.34"></path><ellipse cx="43.4902" cy="28.5377" fill="#004f80" rx="1.3357" ry="1.7432"></ellipse><ellipse cx="55.772" cy="28.5377" fill="#004f80" rx="1.3357" ry="1.7432"></ellipse><circle cx="46.8874" cy="9.9326" r="1" fill="#000"></circle><circle cx="49.4531" cy="9.9326" r="1" fill="#fe0200"></circle><circle cx="52.0211" cy="9.9326" r="1" fill="#ffcb02"></circle><path fill="#004f80" d="M73.7927 39.2066a16.9832 16.9832 0 0 1-.0585.2283c-.0368.1393-.0758.2763-.1149.4144-.1102.3805-.229.7557-.356 1.1256l-.0471.137a24.3275 24.3275 0 0 1-1.0095 2.4703 23.4557 23.4557 0 0 1-.7672 1.484.1914.1914 0 0 1-.0184.0343c-.2434.4292-.5.8588-.7694 1.2888l-.0299.0468c-.0356.0548-.0712.1141-.108.1632-.0367.0491-.0654.1016-.0987.1518a24.7823 24.7823 0 0 1-1.6263 2.177 26.591 26.591 0 0 1-.689.799l-.007.008-.047.0446c-10.241 9.7754-26.3613 9.9588-36.8247.419a50.177 50.177 0 0 1-.4399-.4099c-.0207-.0205-.0425-.04-.0632-.0616-.078-.0822-.1527-.1656-.2297-.2489a31.146 31.146 0 0 1-.3594-.4155l-.007-.008c-.0757-.0902-.1504-.1792-.2296-.2706s-.147-.1769-.2217-.2682a26.9284 26.9284 0 0 1-.387-.4977l-.1677-.2226a28.4392 28.4392 0 0 1-.5742-.8048c-.0597-.088-.1149-.1747-.1769-.2637a26.4842 26.4842 0 0 1-.99-1.6142.3065.3065 0 0 0-.0183-.033 29.1118 29.1118 0 0 1-.5743-1.0903.3006.3006 0 0 0-.0172-.0342c-.0448-.0982-.093-.194-.1401-.29-.0655-.1347-.1287-.274-.1918-.411-.0184-.0387-.0356-.0798-.0528-.114l-.0276-.0594a19.2827 19.2827 0 0 1-.4284-1.0274c-.1148-.29-.2216-.58-.3239-.8722-.016-.0457-.0333-.0925-.0493-.1393a.2376.2376 0 0 1-.0092-.0262 21.8312 21.8312 0 0 1-.1608-.4852 12.3806 12.3806 0 0 1-.1149-.3664 21.3662 21.3662 0 0 1-.2389-.8436c0-.0103-.0057-.0206-.008-.0308 4.8236.589 10.3363.9794 15.5262 1.1792 1.7308.0673 3.427.1141 5.0533.1381l.4594.008h.4996l6.8024-.0388.4766-.0137.4227-.0103c5.9433-.1598 13.49-.6415 19.5332-1.3459z"></path><path fill="#5487bd" d="M72.8958 41.9795a24.1723 24.1723 0 0 1-.6891 1.5981 23.4557 23.4557 0 0 1-.7672 1.484.1914.1914 0 0 1-.0184.0343c-.2434.4292-.5.8588-.7694 1.2888l-.0299.0468c-.0356.0548-.0712.1142-.108.1632-.031.0514-.0643.1005-.0976.1507a24.7823 24.7823 0 0 1-1.6262 2.177 26.594 26.594 0 0 1-.6891.799l-.0069.008c-.3974.4376-.807.8562-1.2289 1.2558-8.3172 7.9532-21.3501 9.412-31.374 2.8139a24.9876 24.9876 0 0 1-3.1147-2.4212 32.664 32.664 0 0 1-.4123-.3836 24.8754 24.8754 0 0 1-1.245-1.2774c-.078-.0822-.1527-.1655-.2296-.2489a31.146 31.146 0 0 1-.3595-.4155l-.0069-.008c-.0758-.0902-.1504-.1792-.2297-.2705-.0792-.0914-.1481-.1667-.2228-.258a26.9284 26.9284 0 0 1-.387-.4977l-.1677-.2226a28.4392 28.4392 0 0 1-.5742-.8048c-.0597-.088-.1149-.1747-.1769-.2637a26.4842 26.4842 0 0 1-.99-1.6142.3065.3065 0 0 0-.0183-.033 29.1118 29.1118 0 0 1-.5743-1.0903.3006.3006 0 0 0-.0172-.0342c-.0448-.0982-.093-.194-.1401-.29-.0655-.1347-.1287-.274-.1918-.411-.0184-.0387-.0356-.0798-.0528-.114l-.0276-.0594a19.2827 19.2827 0 0 1-.4284-1.0274c5.4897.7031 12.013 1.1221 17.8335 1.2716a200.1 200.1 0 0 0 2.081.0434l.4238.008h.4698l6.3706-.0365.4456-.0126c.1324 0 .2645-.0034.3962-.0102 5.7883-.1553 13.1902-.6348 18.951-1.338z"></path><path fill="#fff" d="M40.2033 52.5959v.0183c.9934.0707 1.493.1016 2.4841.154.0977-.436.1459-.6552.2435-1.0935a.7254.7254 0 0 1 .271-.0263c.1976.0076.2964.1857.2964.5342 0 .1987-.0242.6363-.0724 1.3128a110.9453 110.9453 0 0 1-4.4136-.3162c-.1252-.0765-.1872-.2146-.1872-.4155a.6825.6825 0 0 1 .1516-.395 146.775 146.775 0 0 0 3.0194-4.6666v-.0195c-.8901-.0057-1.3357-.0102-2.227-.0182-.078.419-.1148.6278-.1963 1.0445a.559.559 0 0 1-.2044.0308c-.2435-.0053-.3653-.18-.3653-.524 0-.2066.0242-.5936.0712-1.1632l4.1874.0057a.7634.7634 0 0 1 .0804.3265.8796.8796 0 0 1-.1344.4737 186.0298 186.0298 0 0 1-3.0044 4.7375zm6.9597-5.6496c.8798 0 1.5746.2866 2.0845.8596.5283.5929.7929 1.433.7936 2.5206 0 1.0753-.2974 1.928-.874 2.5502a2.661 2.661 0 0 1-2.104.8642c-.8556-.0172-1.5424-.3242-2.0592-.9007-.5451-.6088-.8177-1.4414-.8177-2.4977 0-1.0571.2952-1.8904.874-2.5114a2.7563 2.7563 0 0 1 2.1029-.8848zm-.0884.6473c-.511 0-.9119.242-1.2036.726s-.4376 1.1541-.4376 2.0103.1493 1.5206.4491 2.0114c.2998.4909.7086.7443 1.2254.7534.5168.0092.9268-.2283 1.23-.7134.3032-.4852.4594-1.1576.4594-2.0171 0-.8596-.1573-1.5354-.472-2.0297-.3147-.4943-.735-.7398-1.2507-.7409zm5.4438.0171v5.354a110.681 110.681 0 0 0 1.8456-.0583c.0953-.4658.1435-.6986.2389-1.1632a.8013.8013 0 0 1 .2297-.0457c.196-.0069.294.164.294.5125 0 .3311-.0196.7649-.0609 1.3037-1.464.0723-2.929.1157-4.3952.1301a1.1166 1.1166 0 0 1-.0092-.121c0-.1758.101-.2922.3032-.3504l.3572-.0993v-5.46l-.526-.1325c-.0827-.0194-.124-.0537-.124-.105a2.6014 2.6014 0 0 1 .0976-.3151h2.4232c.0052.041.0083.082.0092.1233 0 .1705-.101.2812-.3032.3322zm4.9051-.0228v5.1632c.7373-.0468 1.106-.0719 1.8376-.129.0965-.4474.1447-.6712.24-1.1164a.9062.9062 0 0 1 .2297-.0502c.1952-.013.2929.1457.2929.476 0 .3128-.0207.7249-.062 1.2363a113.9961 113.9961 0 0 1-4.3872.3196.867.867 0 0 1-.0092-.1141c0-.1712.101-.29.302-.355l.3572-.1142v-5.3094l-.526-.1267c-.0838-.0182-.1252-.0525-.1252-.1027a2.7368 2.7368 0 0 1 .0977-.307h2.4232c.0051.0378.0082.0759.0092.114 0 .1633-.101.2706-.3032.3197zm-27.6897-6.0902.5823.379-.2481-.6461.5386-.4327-.6936.0332-.2493-.6473-.1791.6667-.6937.033.5823.379-.1792.6667zm5.6952.492.5824.379-.2493-.6461.5398-.4326-.6937.033-.2492-.6472-.1791.6678-.6949.032.5835.379-.1792.6678zm5.6942.2466.5834.379-.2492-.6473.5398-.4315-.6937.032-.2492-.6461-.1791.6666-.6949.0331.5834.379-.1791.6667zm16.615-.1347.619.315-.3158-.6164.4904-.4863-.6868.105-.317-.6175-.1068.6826-.6868.105.6202.3174-.1068.6815zm5.7148-.1096.6202.315-.317-.6164.4904-.4863-.6856.105-.317-.6175-.1068.6826-.688.105.6202.3163-.1068.6826zm5.6896-.355.6201.3162-.317-.6176.4905-.4863-.6857.105-.317-.6164-.108.6826-.6867.105.6202.3163-.1068.6815z"></path><path fill="#004f80" d="M46.2684 42.4132v.0194a.0964.0964 0 0 1 0-.0194v-.0216z"></path></g></g></svg>
