<?xml version="1.0" encoding="utf-8"?>
<!-- Generator: Adobe Illustrator 24.0.0, SVG Export Plug-In . SVG Version: 6.00 Build 0)  -->
<svg version="1.1" id="Capa_1" xmlns="http://www.w3.org/2000/svg" xmlns:xlink="http://www.w3.org/1999/xlink" x="0px" y="0px"
	 viewBox="0 0 300 300" style="enable-background:new 0 0 300 300;" xml:space="preserve">
<style type="text/css">
	.st0{fill:#2D75FD;}
</style>
<g>
	<path class="st0" d="M214.6,109.3l-33.9,0c-1.7-13-13.2-23.3-27.5-24.7l0-18.6c10.5-1.5,18.5-9.7,18.5-19.7
		c0-11-9.8-19.9-21.8-19.9c-12,0-21.8,8.9-21.8,19.9c0,9.9,8.1,18.2,18.5,19.7l0,18.6c-14.4,1.4-25.8,11.7-27.5,24.7l-33.9,0
		c-22.2,0-40.3,18.1-40.3,40.3l0.1,83.5c0,22.2,18.1,40.3,40.3,40.3l129.4-0.1c22.2,0,40.3-18.1,40.3-40.3l-0.1-83.5
		C255,127.3,236.9,109.3,214.6,109.3z M111.4,179.2c-8.4,0-15.2-5.9-15.2-13.2c0-7.3,6.8-13.3,15.1-13.3s15.2,5.9,15.2,13.2
		C126.6,173.3,119.8,179.2,111.4,179.2z M191.5,203.1c0,23.1-18.7,41.8-41.7,41.8c-23.1,0-41.8-18.7-41.8-41.7L191.5,203.1z
		 M187,179.2c-8.4,0-15.2-5.9-15.2-13.2c0-7.3,6.8-13.3,15.1-13.3c8.4,0,15.2,5.9,15.2,13.2C202.1,173.2,195.3,179.2,187,179.2z"/>
	<path class="st0" d="M288.6,142.4l-18.5,0c-1.8,0-3.3,1.5-3.3,3.3l0.1,70.4c0,1.8,1.5,3.3,3.3,3.3l18.5,0c1.8,0,3.3-1.5,3.3-3.3
		l-0.1-70.4C292,143.8,290.5,142.4,288.6,142.4z"/>
	<path class="st0" d="M29.8,142.6l-18.5,0c-1.8,0-3.3,1.5-3.3,3.3L8,216.4c0,1.8,1.5,3.3,3.3,3.3l18.5,0c1.8,0,3.3-1.5,3.3-3.3
		l-0.1-70.4C33.1,144.1,31.6,142.6,29.8,142.6z"/>
</g>
</svg>
