<?xml version="1.0" encoding="utf-8"?>
<!-- Generator: Adobe Illustrator 24.0.0, SVG Export Plug-In . SVG Version: 6.00 Build 0)  -->
<svg version="1.1" id="Capa_1" xmlns="http://www.w3.org/2000/svg" xmlns:xlink="http://www.w3.org/1999/xlink" x="0px" y="0px"
	 viewBox="0 0 21 20" style="enable-background:new 0 0 21 20;" xml:space="preserve">
<style type="text/css">
	.st0{fill:#0353E9;}
</style>
<g>
	<path class="st0" d="M13.7,9.04c0-2.29-1.87-4.16-4.16-4.16c-2.29,0-4.16,1.87-4.16,4.16c0,2.29,1.87,4.16,4.16,4.16
		c1,0,1.94-0.37,2.69-1.02l2.93,2.93l0.45-0.45l-2.93-2.93C13.33,10.98,13.7,10.05,13.7,9.04z M13.07,9.04
		c0,0.94-0.37,1.83-1.03,2.49c-0.67,0.67-1.55,1.03-2.49,1.03c-1.94,0-3.53-1.58-3.53-3.53S7.6,5.52,9.54,5.52S13.07,7.1,13.07,9.04
		z"/>
	<path class="st0" d="M10.43,9.05l-0.6-1.29C9.78,7.65,9.67,7.58,9.57,7.57c-0.12-0.02-0.24,0.04-0.3,0.16L8.56,8.95L8.31,8.17
		c-0.04-0.12-0.14-0.2-0.27-0.22C7.92,7.94,7.79,8,7.73,8.11l-1.11,1.93l0.55,0.32l0.76-1.31l0.25,0.77
		c0.04,0.12,0.14,0.21,0.27,0.22c0.11,0.01,0.24-0.05,0.31-0.16l0.76-1.31l0.6,1.28c0.05,0.11,0.16,0.18,0.26,0.18
		c0.11,0.02,0.24-0.04,0.3-0.15l1.51-2.52l-0.54-0.33L10.43,9.05z"/>
</g>
</svg>
