<?xml version="1.0" encoding="utf-8"?>
<!-- Generator: Adobe Illustrator 24.0.0, SVG Export Plug-In . SVG Version: 6.00 Build 0)  -->
<svg version="1.1" id="Capa_1" xmlns="http://www.w3.org/2000/svg" xmlns:xlink="http://www.w3.org/1999/xlink" x="0px" y="0px"
	 viewBox="0 0 49 50" style="enable-background:new 0 0 49 50;" xml:space="preserve">
<style type="text/css">
	.st0{fill:#2D75FD;}
</style>
<path class="st0" d="M24.5,8.2C15.3,8.2,7.8,15.8,7.8,25s7.5,16.8,16.8,16.8S41.2,34.2,41.2,25S33.7,8.2,24.5,8.2z M35.8,33.5
	c-0.8-3.2-3-6-6-7.5c1.1-1.3,1.7-2.9,1.7-4.6c0-3.9-3.1-7-7-7c-3.8,0-7,3.1-7,7c0,1.7,0.6,3.3,1.7,4.6c-3,1.5-5.2,4.3-6,7.5
	c-1.9-2.4-2.9-5.4-2.9-8.5c0-7.8,6.3-14.1,14.1-14.1S38.6,17.2,38.6,25C38.6,28.1,37.6,31.1,35.8,33.5z"/>
</svg>
