<?xml version="1.0" encoding="utf-8"?>
<!-- Generator: Adobe Illustrator 24.0.0, SVG Export Plug-In . SVG Version: 6.00 Build 0)  -->
<svg version="1.1" id="Capa_1" xmlns="http://www.w3.org/2000/svg" xmlns:xlink="http://www.w3.org/1999/xlink" x="0px" y="0px"
	 viewBox="0 0 21 20" style="enable-background:new 0 0 21 20;" xml:space="preserve">
<style type="text/css">
	.st0{fill:#0353E9;}
</style>
<g>
	<path class="st0" d="M9.27,10.77L8.18,9.68l-0.47,0.47l1.32,1.32c0.06,0.06,0.15,0.1,0.23,0.1s0.17-0.03,0.23-0.1l2.67-2.67
		l0.09-0.09L11.8,8.24L9.27,10.77z"/>
	<path class="st0" d="M14.54,9.59c0-2.45-1.99-4.44-4.44-4.44S5.65,7.14,5.65,9.59s1.99,4.44,4.44,4.44c1.08,0,2.08-0.4,2.89-1.09
		l1.82,1.82l0.09,0.09l0.47-0.47l-1.9-1.91C14.14,11.67,14.54,10.67,14.54,9.59z M13.88,9.59c0,1.01-0.39,1.96-1.11,2.67
		c-0.71,0.71-1.66,1.11-2.67,1.11c-2.09,0-3.78-1.7-3.78-3.78s1.7-3.78,3.78-3.78S13.88,7.51,13.88,9.59z"/>
</g>
</svg>
